<svg width="30" height="50" fill="none" xmlns="http://www.w3.org/2000/svg"><g clip-path="url(#clip0_23_35)"><path d="M5.168 33.425l20 .13m-10 0v10m-7 5l14.04-30.39m-21.04 24.39l27.577-18.979M1.618 24.649l28.076 18.233m-7.526 5.673l-14-30.197" stroke="#F90A0A" stroke-width="3" stroke-linecap="round"/><path d="M11.168 32.555a4 4 0 108 0h-8zm4 0h4v-40h-8v40h4z" fill="#F90A0A"/><path d="M13.168-7.445v40a2 2 0 104 0v-40h2v40a4 4 0 11-8 0v-40h2z" fill="#fff"/></g><defs><clipPath id="clip0_23_35"><path fill="#fff" transform="rotate(-90 25 25)" d="M0 0h50v30H0z"/></clipPath></defs></svg>