<svg xmlns="http://www.w3.org/2000/svg" width="512" height="512" viewBox="0 0 64 64"><path d="M61.986 34.178a.997.997 0 00-.07-.282c-.007-.017-.005-.034-.013-.051-.006-.014-.019-.022-.026-.035a.999.999 0 00-.21-.281l-.002-.002a.987.987 0 00-.237-.157l-6.83-3.24V11.954a4.373 4.373 0 00-4.368-4.367h-1.991V4.189a2.12 2.12 0 00-2.119-2.118h-2.312a2.12 2.12 0 00-2.118 2.118v3.398H14.909V4.189a2.12 2.12 0 00-2.119-2.118h-2.312c-1.161 0-2.105.95-2.105 2.118v3.398H6.368a4.372 4.372 0 00-4.367 4.367v34.302c0 2.398 1.959 4.351 4.367 4.351h20.177v2.459a1 1 0 00.571.903l16.728 7.935c.015.007.032.004.047.01.121.05.248.085.381.086h.004a.99.99 0 00.377-.085c.016-.007.033-.004.049-.011l16.728-7.935a.999.999 0 00.571-.903V34.275l-.003-.024c0-.024-.008-.048-.01-.072zm-17.714 6.925l-6.656-3.158 14.393-6.829 6.658 3.158-14.394 6.829zm0-13.657l5.404 2.563-14.392 6.829-5.406-2.564 14.395-6.828zM43.807 4.07h2.312c.063 0 .119.056.119.118v8.795a.126.126 0 01-.037.086.118.118 0 01-.081.035h-2.312a.116.116 0 01-.081-.035.127.127 0 01-.033-.086V8.587c0-.007-.004-.013-.004-.019v-4.38c0-.062.056-.118.118-.118zm-33.436.118c0-.066.046-.118.105-.118h2.312c.063 0 .119.056.119.118v4.374c0 .009-.005.016-.005.024v4.396a.127.127 0 01-.033.086.118.118 0 01-.081.035h-2.312c-.06 0-.105-.052-.105-.118V4.188zM6.366 9.586h2.001v3.396c0 1.172.946 2.125 2.108 2.125h2.312a2.1 2.1 0 001.185-.365 2.118 2.118 0 00.936-1.757V9.586h26.78v3.399c0 .693.339 1.303.854 1.69.354.268.789.432 1.266.432h2.312c.73 0 1.374-.373 1.755-.938.229-.338.362-.746.362-1.184V9.586h1.991a2.37 2.37 0 012.368 2.367v5.285H4v-5.285a2.37 2.37 0 012.367-2.367zm0 39.02a2.361 2.361 0 01-2.367-2.351V19.239h48.6v9.943l-7.897-3.746c-.015-.007-.03-.005-.045-.011-.068-.029-.14-.04-.213-.053-.057-.01-.111-.025-.168-.025-.062 0-.121.016-.183.028-.069.013-.135.023-.199.05-.016.007-.033.005-.049.012L27.122 33.37a1.003 1.003 0 00-.576.926v14.311H6.367zm36.905 10.812l-14.728-6.986V35.855l14.728 6.987zm2 0V42.841l14.728-6.987v16.577l-14.728 6.986z" data-original="#000000"/><path d="M57.65 49.865l-5.219 2.382a1 1 0 10.83 1.82l5.219-2.382a1 1 0 10-.83-1.82zm0-3.33l-5.219 2.382a1 1 0 10.83 1.82l5.219-2.382a1 1 0 10-.83-1.82zM13.909 23.934h-4.07a1 1 0 100 2h4.07a1 1 0 100-2zm10.258 0h-4.07a1 1 0 100 2h4.07a1 1 0 100-2zm-10.258 5.873h-4.07a1 1 0 100 2h4.07a1 1 0 100-2zm10.258 0h-4.07a1 1 0 100 2h4.07a1 1 0 100-2zM13.909 35.68h-4.07a1 1 0 100 2h4.07a1 1 0 100-2zm10.258 0h-4.07a1 1 0 100 2h4.07a1 1 0 100-2zm-10.258 5.873h-4.07a1 1 0 100 2h4.07a1 1 0 100-2zm10.258 0h-4.07a1 1 0 100 2h4.07a1 1 0 100-2zm6.187-15.619h4.07a1 1 0 100-2h-4.07a1 1 0 100 2z" data-original="#000000"/></svg>