<svg width="20" height="20" fill="none" xmlns="http://www.w3.org/2000/svg"><g clip-path="url(#clip0_305_60)" fill="#fff"><path d="M3.958 20h12.084A3.964 3.964 0 0020 16.042V3.958A3.963 3.963 0 0016.042 0H3.958A3.963 3.963 0 000 3.958v12.084A3.963 3.963 0 003.958 20zM1.25 3.958A2.712 2.712 0 013.958 1.25h12.084a2.712 2.712 0 012.708 2.708v12.084a2.712 2.712 0 01-2.708 2.708H3.958a2.712 2.712 0 01-2.708-2.708V3.958z"/><path d="M10 15.108A5.114 5.114 0 0015.108 10 5.114 5.114 0 0010 4.892 5.114 5.114 0 004.892 10 5.114 5.114 0 0010 15.108zm0-8.966A3.863 3.863 0 0113.858 10 3.863 3.863 0 0110 13.858 3.863 3.863 0 016.142 10 3.863 3.863 0 0110 6.142zm5.298-.007c.822 0 1.441-.617 1.441-1.434 0-.853-.652-1.434-1.44-1.434-.822 0-1.44.616-1.44 1.434 0 .85.648 1.434 1.44 1.434zm.148-1.572c.263.233-.338.515-.338.139 0-.225.306-.167.338-.139z"/></g><defs><clipPath id="clip0_305_60"><path fill="#fff" d="M0 0h20v20H0z"/></clipPath></defs></svg>