<svg width="45" height="45" fill="none" xmlns="http://www.w3.org/2000/svg"><path d="M33.75 1.406a9.855 9.855 0 00-9.844 9.844c0 9.17 8.836 13.724 9.211 13.913a1.444 1.444 0 001.266 0c.374-.19 9.21-4.741 9.21-13.913a9.855 9.855 0 00-9.843-9.844zm0 20.879c-1.838-1.14-7.031-4.898-7.031-11.035a7.03 7.03 0 1114.062 0c0 6.138-5.196 9.897-7.031 11.035z" fill="#fff"/><path d="M33.75 7.031a4.219 4.219 0 100 8.438 4.219 4.219 0 000-8.438zm0 5.625a1.407 1.407 0 110-2.813 1.407 1.407 0 010 2.813zm2.813 14.71a1.407 1.407 0 00-1.407 1.406v6.921l-8.437 4.22V24.454a1.407 1.407 0 00-2.813 0v15.194l-8.437-5.273V8.423l3.45 2.565a1.406 1.406 0 101.677-2.258L14.9 4.497a1.436 1.436 0 00-1.469-.13L2.182 9.994a1.406 1.406 0 00-.776 1.257v30.937a1.41 1.41 0 00.724 1.23 1.424 1.424 0 001.428-.037l10.505-6.567 10.51 6.571a1.397 1.397 0 001.368.062l11.25-5.625a1.406 1.406 0 00.778-1.259v-7.79a1.406 1.406 0 00-1.407-1.406zM4.218 12.119L12.656 7.9v26.476L4.22 39.649V12.12z" fill="#fff"/></svg>