<svg xmlns="http://www.w3.org/2000/svg" width="512" height="512" viewBox="0 0 64 64"><g data-name="Layer 13"><path d="M25.485 21.857l5 3a1 1 0 001.03 0l5-3A1 1 0 0037 21v-6a1 1 0 00-.485-.857l-5-3a1 1 0 00-1.03 0l-5 3A1 1 0 0025 15v6a1 1 0 00.485.857zM27 16.766l3 1.8v3.668l-3-1.8zm5 5.468v-3.668l3-1.8v3.668zm-1-9.068L34.056 15 31 16.834 27.944 15zM27 27h8v2h-8zm-3 4h14v2H24z" data-original="#000000"/><path d="M60.264 44.183A9.6 9.6 0 0053.77 36.2l-2.356-.785-.384-.48A5.134 5.134 0 0047 33a2.98 2.98 0 00-.939.159l-1.646-2.742A2.919 2.919 0 0042 29.011v-1.133a5.879 5.879 0 001.473-.5l1.949-.975a2.844 2.844 0 00.394-4.856l.431-.173a2.787 2.787 0 00.074-5.145A3.246 3.246 0 0043.754 11a7.165 7.165 0 00-1.728.212l-.026.007v-.868l3.231-4.04A3.507 3.507 0 0046 4.121a3.121 3.121 0 00-5.328-2.207l-.072.071A3.967 3.967 0 0038 1H24a4 4 0 00-4 4v2.115a2.694 2.694 0 00-3.346 1.76l-3.969 11.911A13.276 13.276 0 0012 25v11.018a.98.98 0 00-.824.416l-11 16 1.648 1.132 5.769-8.391 13.291 8.307L19.02 62.8l1.96.392 1.969-9.841 3.919-6.851a1 1 0 00-.327-1.337l-.193-.125L29.768 41H35v4a13.276 13.276 0 00.685 4.214l1.679 5.04a10.174 10.174 0 003.56 4.938l3.287 2.466.894 1.789 1.79-.894-1-2a1 1 0 00-.3-.353l-3.477-2.608a8.2 8.2 0 01-2.862-3.971l-1.68-5.04A11.3 11.3 0 0137 45v-5.315a.685.685 0 011.349-.167l.2.784A15.272 15.272 0 0139 44v2a1 1 0 00.4.8l4 3A1 1 0 0045 49v-5a10.371 10.371 0 00-.9-4.234l-2.748-6.18a4.1 4.1 0 01-.352-1.67.915.915 0 011.7-.471l5.443 9.07 1.714-1.03-2.679-4.465a3.13 3.13 0 012.29 1.166l2.751 3.439 1.562-1.25-.006-.008a7.515 7.515 0 014.5 6.05l1.73 14.7a1.023 1.023 0 00.1.33l2 4 1.79-.894-1.922-3.844zM44.527 24.618l-1.949.975a3.878 3.878 0 01-1.724.407.854.854 0 01-.381-1.618l1.949-.975A3.878 3.878 0 0144.146 23a.854.854 0 01.381 1.618zm.978-5.1l-2.752 1.1a5.266 5.266 0 01-1.964.382.789.789 0 01-.294-1.521l2.752-1.1A5.266 5.266 0 0145.211 18a.789.789 0 01.294 1.521zm-3-6.368a5.13 5.13 0 011.249-.15 1.246 1.246 0 01.3 2.455l-1.566.392a5.13 5.13 0 01-1.242.153 1.246 1.246 0 01-.3-2.455zM42.879 3A1.122 1.122 0 0144 4.121a1.51 1.51 0 01-.33.941L42 7.149V5a3.971 3.971 0 00-.247-1.339l.333-.333A1.133 1.133 0 0142.879 3zM33.72 3l-.5 2h-4.439l-.5-2zM21.648 51.6L8.727 43.525l3.547-5.16 12.387 7.963zm3-7.657L14 37.1V25a11.3 11.3 0 01.581-3.581l3.97-11.911A.744.744 0 0120 9.744v6.134l-.97 3.879a1 1 0 000 .486l.97 3.879V37a4 4 0 004 4h3.146zM37.685 37a2.682 2.682 0 00-2.585 2H24a2 2 0 01-2-2V5a2 2 0 012-2h2.22l.811 3.243A1 1 0 0028 7h6a1 1 0 00.97-.757L35.781 3H38a2 2 0 012 2v6.761a3.229 3.229 0 00-.244 5.86 2.777 2.777 0 00-.272 5.037 2.832 2.832 0 00.519 5.2v1.88a2.9 2.9 0 00-1 2.181 6.09 6.09 0 00.526 2.481L40 35.463V37a1.985 1.985 0 01-.259.969A2.674 2.674 0 0037.685 37zM43 44v3l-2-1.5V44a17.329 17.329 0 00-.458-3.923 3.968 3.968 0 00.978-1.193l.753 1.7A8.345 8.345 0 0143 44z" data-original="#000000"/></g></svg>