<svg width="24" height="24" fill="none" xmlns="http://www.w3.org/2000/svg"><g clip-path="url(#clip0_249_115)" fill="#fff"><path d="M3.42 12.947a46.441 46.441 0 009.665 9.155 6.345 6.345 0 007.6-.3l1.674-1.417a2.614 2.614 0 00-.055-3.954l-3.296-2.638c-1.395-1.078-3.088-.505-4.003.885a1.083 1.083 0 01-1.533.107 44.072 44.072 0 01-4.237-4.237 1.085 1.085 0 01.109-1.532l.522-.435a2.573 2.573 0 00.362-3.568L7.59 1.718a2.598 2.598 0 00-3.953-.055L2.219 3.337C-.423 6.544.87 10.146 3.42 12.947zm-.055-8.642L4.78 2.633a1.076 1.076 0 011.638.022l2.637 3.297a1.065 1.065 0 01-.15 1.478l-.522.434a2.632 2.632 0 00-.28 3.672 45.646 45.646 0 004.383 4.382 2.597 2.597 0 003.671-.28l.435-.522a1.067 1.067 0 011.477-.15l3.297 2.638a1.072 1.072 0 01.023 1.638l-1.674 1.416a4.717 4.717 0 01-5.766.22A44.963 44.963 0 013.144 10.072a4.719 4.719 0 01.22-5.765v-.002zM13.5.75a.75.75 0 100 1.5 8.259 8.259 0 018.25 8.25.75.75 0 101.5 0A9.76 9.76 0 0013.5.75z"/><path d="M18 10.5a.75.75 0 101.5 0 6.008 6.008 0 00-6-6 .75.75 0 100 1.5 4.505 4.505 0 014.5 4.5z"/></g><defs><clipPath id="clip0_249_115"><path fill="#fff" d="M0 0h24v24H0z"/></clipPath></defs></svg>