<svg width="20" height="20" fill="none" xmlns="http://www.w3.org/2000/svg"><g clip-path="url(#clip0_305_43)" fill="#fff"><path d="M10 20c5.514 0 10-4.486 10-10S15.514 0 10 0 0 4.486 0 10s4.486 10 10 10zm0-18.75c4.825 0 8.75 3.925 8.75 8.75s-3.925 8.75-8.75 8.75S1.25 14.825 1.25 10 5.175 1.25 10 1.25z"/><path d="M6.58 11.796l1.307-.568-.367.368a.625.625 0 00-.183.441v2.446c0 .56.676.832 1.066.442l1.312-1.312 2.858 1.43a.625.625 0 00.895-.448l1.63-8.968a.625.625 0 00-.843-.694L3.658 9.081a.625.625 0 00-.108 1.109l2.445 1.56c.175.112.396.13.585.046zm7.088-5.29l-1.28 7.046-2.517-1.257a.623.623 0 00-.72.117l-.564.564v-.678l2.506-2.506c.485-.485-.061-1.287-.691-1.015L6.388 10.52 5.259 9.8l8.41-3.292z"/></g><defs><clipPath id="clip0_305_43"><path fill="#fff" d="M0 0h20v20H0z"/></clipPath></defs></svg>