<svg width="20" height="20" fill="none" xmlns="http://www.w3.org/2000/svg"><g clip-path="url(#clip0_305_56)" fill="#fff"><path d="M11.108 15.063c3.375.804 4.563-2.083 3.968-3.16-.239-.43-2.38-1.256-2.484-1.296-.92-.335-1.26.29-1.898 1.112-1.224-.612-2.045-1.095-2.888-2.466.047-.06.11-.13.158-.183.295-.33.848-.945.47-1.697-.316-.631-.473-1.071-.59-1.394-.335-.934-.59-1.187-1.747-1.187-1.205 0-2.139 1.582-2.139 2.945 0 2.974 3.999 6.574 7.15 7.326zM6.097 6.042c.25 0 .376.008.44.018.135.286.271.883.775 1.81-.079.293-1.191.98-.675 1.866 1.054 1.79 2.109 2.41 3.62 3.162 1.007.455 1.329-.369 1.967-1.093.296.12 1.294.562 1.733.783-.04.864-.873 1.66-2.559 1.259-2.893-.691-6.19-3.946-6.19-6.111 0-.823.578-1.694.889-1.694z"/><path d="M.07 19.238a.625.625 0 00.602.79c.15 0-.095.039 4.873-1.25 2.022 1.03 3.56.998 4.542 1.09 8.796 0 13.104-10.727 7.05-16.969C8.84-5.12-4.082 4.846 1.325 14.672L.069 19.238zm16.072-15.56c.145.263 4.28 3.992 1.977 9.564-1.417 3.434-4.688 5.55-8.353 5.351-2.982-.166-3.754-1.23-4.303-1.085l-3.902 1.017 1.037-3.77a.625.625 0 00-.06-.48C-2.449 5.673 8.825-3.172 16.141 3.678z"/></g><defs><clipPath id="clip0_305_56"><path fill="#fff" d="M0 0h20v20H0z"/></clipPath></defs></svg>