<svg width="173" height="57" fill="none" xmlns="http://www.w3.org/2000/svg"><path d="M27 31.698V13.252h11.431v2.396h-8.65v5.62h7.831v2.387h-7.83v8.043H27zm14.107 0h-2.952l6.633-18.446h3.214L54.636 31.7h-2.953l-5.211-15.096h-.145l-5.22 15.095zm.495-7.223h9.577v2.342h-9.577v-2.342zm25.602-6.377c-.097-.853-.493-1.513-1.189-1.982-.696-.474-1.572-.711-2.628-.711-.757 0-1.41.12-1.963.36-.552.234-.98.559-1.287.973-.3.408-.45.874-.45 1.396 0 .438.102.817.307 1.135.21.318.483.585.819.802.342.21.708.387 1.098.53.39.139.764.253 1.125.343l1.8.469c.588.144 1.191.339 1.81.585a7.25 7.25 0 011.719.973c.528.402.954.9 1.277 1.495.33.594.495 1.306.495 2.134 0 1.045-.27 1.973-.81 2.784-.534.81-1.311 1.45-2.33 1.918-1.015.469-2.242.703-3.682.703-1.38 0-2.574-.22-3.582-.658-1.009-.438-1.798-1.06-2.368-1.864-.57-.81-.885-1.772-.945-2.883h2.79c.054.667.27 1.223.648 1.667a3.5 3.5 0 001.468.982c.6.21 1.257.315 1.97.315.787 0 1.486-.123 2.098-.37.618-.252 1.104-.6 1.458-1.044.354-.45.531-.976.531-1.576 0-.547-.156-.994-.468-1.343-.306-.348-.723-.636-1.251-.864a12.193 12.193 0 00-1.773-.604l-2.179-.594c-1.475-.402-2.646-.994-3.51-1.774-.858-.781-1.287-1.814-1.287-3.099 0-1.063.288-1.99.864-2.783.576-.793 1.356-1.408 2.34-1.847.984-.444 2.095-.666 3.331-.666 1.248 0 2.349.22 3.303.658.96.438 1.716 1.041 2.268 1.81.552.763.84 1.64.864 2.63h-2.681zm5.348-2.45v-2.396h14.266v2.396h-5.751v16.05h-2.772v-16.05h-5.743zm16.51 0v-2.396h14.267v2.396h-5.752v16.05h-2.772v-16.05h-5.743zm32.64 6.827c0 1.97-.36 3.663-1.08 5.08-.72 1.411-1.707 2.498-2.961 3.26-1.249.757-2.667 1.136-4.258 1.136-1.596 0-3.021-.379-4.275-1.135-1.248-.763-2.233-1.853-2.953-3.27-.719-1.417-1.08-3.107-1.08-5.07 0-1.97.361-3.66 1.08-5.072.72-1.417 1.705-2.504 2.953-3.26 1.254-.763 2.679-1.144 4.275-1.144 1.591 0 3.009.381 4.258 1.144 1.254.756 2.241 1.843 2.961 3.26.72 1.412 1.08 3.102 1.08 5.071zm-2.754 0c0-1.5-.243-2.765-.729-3.792-.48-1.032-1.14-1.813-1.98-2.341-.835-.535-1.78-.802-2.836-.802-1.062 0-2.01.267-2.844.802-.834.528-1.494 1.309-1.98 2.341-.48 1.027-.72 2.291-.72 3.792 0 1.502.24 2.768.72 3.801.486 1.027 1.146 1.808 1.98 2.342.834.529 1.782.793 2.844.793 1.056 0 2.001-.265 2.836-.793.84-.534 1.5-1.315 1.98-2.342.486-1.032.729-2.3.729-3.8zm22.235 0c0 1.97-.36 3.663-1.08 5.08-.721 1.411-1.708 2.498-2.962 3.26-1.248.757-2.667 1.136-4.257 1.136-1.596 0-3.021-.379-4.275-1.135-1.249-.763-2.233-1.853-2.953-3.27-.72-1.417-1.08-3.107-1.08-5.07 0-1.97.36-3.66 1.08-5.072.72-1.417 1.704-2.504 2.953-3.26 1.254-.763 2.679-1.144 4.275-1.144 1.59 0 3.009.381 4.257 1.144 1.254.756 2.241 1.843 2.962 3.26.72 1.412 1.08 3.102 1.08 5.071zm-2.755 0c0-1.5-.243-2.765-.728-3.792-.481-1.032-1.141-1.813-1.981-2.341-.834-.535-1.779-.802-2.835-.802-1.062 0-2.01.267-2.845.802-.833.528-1.494 1.309-1.98 2.341-.48 1.027-.72 2.291-.72 3.792 0 1.502.24 2.768.72 3.801.486 1.027 1.147 1.808 1.98 2.342.835.529 1.783.793 2.845.793 1.056 0 2.001-.265 2.835-.793.84-.534 1.5-1.315 1.981-2.342.485-1.032.728-2.3.728-3.8zm6.222 9.223V13.252h2.781v16.05h8.354v2.396H144.65zm24.362-13.6c-.096-.853-.493-1.513-1.188-1.982-.697-.474-1.572-.711-2.629-.711-.756 0-1.41.12-1.962.36-.552.234-.981.559-1.287.973-.3.408-.45.874-.45 1.396 0 .438.102.817.306 1.135.21.318.483.585.819.802.342.21.708.387 1.098.53.39.139.765.253 1.125.343l1.8.469c.588.144 1.192.339 1.81.585a7.27 7.27 0 011.719.973c.528.402.954.9 1.278 1.495.33.594.495 1.306.495 2.134 0 1.045-.27 1.973-.81 2.784-.534.81-1.311 1.45-2.331 1.918-1.014.469-2.242.703-3.682.703-1.38 0-2.574-.22-3.582-.658-1.008-.438-1.797-1.06-2.368-1.864-.569-.81-.885-1.772-.944-2.883h2.79c.054.667.269 1.223.648 1.667.384.438.873.765 1.467.982.6.21 1.257.315 1.971.315.786 0 1.485-.123 2.098-.37.617-.252 1.104-.6 1.458-1.044.353-.45.531-.976.531-1.576 0-.547-.156-.994-.468-1.343-.307-.348-.723-.636-1.252-.864a12.21 12.21 0 00-1.772-.604l-2.179-.594c-1.476-.402-2.647-.994-3.51-1.774-.859-.781-1.287-1.814-1.287-3.099 0-1.063.287-1.99.863-2.783.576-.793 1.356-1.408 2.341-1.847.984-.444 2.094-.666 3.33-.666 1.248 0 2.35.22 3.304.658.96.438 1.716 1.041 2.268 1.81.552.763.84 1.64.864 2.63h-2.682z" fill="#fff"/><path stroke="#FF551A" stroke-width="3" stroke-linecap="round" d="M21.5 1.5v54m150-17H1.5"/><circle cx="21.5" cy="38.5" r="4.5" fill="#FF551A"/><path d="M31 48.102L11.42 28.477m.47 19.649l10.048-10.035" stroke="#FF551A" stroke-width="1.748" stroke-linecap="round"/></svg>