<?xml version="1.0" encoding="utf-8"?><svg xmlns="http://www.w3.org/2000/svg" xmlns:xlink="http://www.w3.org/1999/xlink"><symbol viewBox="0 0 24 24" id="account" xmlns="http://www.w3.org/2000/svg"><circle cx="12" cy="12" r="11.25" stroke-width="1.5"/><circle cx="12" cy="9" r="4.25" stroke-width="1.5"/><path d="M20 20C20 16.6863 16.4183 14 12 14C7.58172 14 4 16.6863 4 20" stroke-width="1.5"/></symbol><symbol viewBox="0 0 24 25" id="basket" xmlns="http://www.w3.org/2000/svg"><path d="M4.67969 5.75H18.8955C20.0324 5.75 20.9907 6.59812 21.1289 7.72656L22.8438 21.7266C23.0079 23.0676 21.9614 24.2499 20.6104 24.25H3.30859C1.97926 24.25 0.939736 23.1033 1.06934 21.7803L2.44043 7.78027C2.55347 6.62829 3.52213 5.75 4.67969 5.75Z" stroke-width="1.5"/><path d="M17 10V5.5C17 3.01472 14.9853 1 12.5 1V1C10.0147 1 8 3.01472 8 5.5V10" stroke-width="1.5" stroke-linecap="round"/></symbol><symbol viewBox="0 0 64 64" xml:space="preserve" id="delivery" xmlns="http://www.w3.org/2000/svg"><g><path d="M61.986 34.178a.997.997 0 0 0-.07-.282c-.007-.017-.005-.034-.013-.051-.006-.014-.019-.022-.026-.035a.999.999 0 0 0-.21-.281l-.002-.002a.987.987 0 0 0-.237-.157l-6.83-3.24V11.954a4.373 4.373 0 0 0-4.368-4.367h-1.991V4.189a2.12 2.12 0 0 0-2.119-2.118h-2.312a2.12 2.12 0 0 0-2.118 2.118v3.398H14.909V4.189a2.12 2.12 0 0 0-2.119-2.118h-2.312c-1.161 0-2.105.95-2.105 2.118v3.398H6.368a4.372 4.372 0 0 0-4.367 4.367v34.302c0 2.398 1.959 4.351 4.367 4.351h20.177v2.459a1 1 0 0 0 .571.903l16.728 7.935c.015.007.032.004.047.01.121.05.248.085.381.086h.004a.99.99 0 0 0 .377-.085c.016-.007.033-.004.049-.011l16.728-7.935a.999.999 0 0 0 .571-.903V34.275l-.003-.024c0-.024-.008-.048-.01-.072zm-17.714 6.925-6.656-3.158 14.393-6.829 6.658 3.158-14.394 6.829zm0-13.657 5.404 2.563-14.392 6.829-5.406-2.564 14.395-6.828zM43.807 4.07h2.312c.063 0 .119.056.119.118v8.795a.126.126 0 0 1-.037.086.118.118 0 0 1-.081.035h-2.312a.116.116 0 0 1-.081-.035.127.127 0 0 1-.033-.086V8.587c0-.007-.004-.013-.004-.019v-4.38c0-.062.056-.118.118-.118zm-33.436.118c0-.066.046-.118.105-.118h2.312c.063 0 .119.056.119.118v4.374c0 .009-.005.016-.005.024v4.396a.127.127 0 0 1-.033.086.118.118 0 0 1-.081.035h-2.312c-.06 0-.105-.052-.105-.118V4.188zM6.366 9.586h2.001v3.396c0 1.172.946 2.125 2.108 2.125h2.312a2.1 2.1 0 0 0 1.185-.365 2.118 2.118 0 0 0 .936-1.757V9.586h26.78v3.399c0 .693.339 1.303.854 1.69.354.268.789.432 1.266.432h2.312c.73 0 1.374-.373 1.755-.938.229-.338.362-.746.362-1.184V9.586h1.991a2.37 2.37 0 0 1 2.368 2.367v5.285H4v-5.285a2.37 2.37 0 0 1 2.367-2.367zm0 39.02a2.361 2.361 0 0 1-2.367-2.351V19.239h48.6v9.943l-7.897-3.746c-.015-.007-.03-.005-.045-.011-.068-.029-.14-.04-.213-.053-.057-.01-.111-.025-.168-.025-.062 0-.121.016-.183.028-.069.013-.135.023-.199.05-.016.007-.033.005-.049.012L27.122 33.37a1.003 1.003 0 0 0-.576.926v14.311H6.367zm36.905 10.812-14.728-6.986V35.855l14.728 6.987zm2 0V42.841l14.728-6.987v16.577l-14.728 6.986z" opacity="1" data-original="#000000"/><path d="m57.65 49.865-5.219 2.382a1 1 0 1 0 .83 1.82l5.219-2.382a1 1 0 1 0-.83-1.82zM57.65 46.535l-5.219 2.382a1 1 0 1 0 .83 1.82l5.219-2.382a1 1 0 1 0-.83-1.82zM13.909 23.934h-4.07a1 1 0 1 0 0 2h4.07a1 1 0 1 0 0-2zM24.167 23.934h-4.07a1 1 0 1 0 0 2h4.07a1 1 0 1 0 0-2zM13.909 29.807h-4.07a1 1 0 1 0 0 2h4.07a1 1 0 1 0 0-2zM24.167 29.807h-4.07a1 1 0 1 0 0 2h4.07a1 1 0 1 0 0-2zM13.909 35.68h-4.07a1 1 0 1 0 0 2h4.07a1 1 0 1 0 0-2zM24.167 35.68h-4.07a1 1 0 1 0 0 2h4.07a1 1 0 1 0 0-2zM13.909 41.553h-4.07a1 1 0 1 0 0 2h4.07a1 1 0 1 0 0-2zM24.167 41.553h-4.07a1 1 0 1 0 0 2h4.07a1 1 0 1 0 0-2zM30.354 25.934h4.07a1 1 0 1 0 0-2h-4.07a1 1 0 1 0 0 2z" opacity="1" data-original="#000000"/></g></symbol><symbol viewBox="0 0 20 20" id="instagram" xmlns="http://www.w3.org/2000/svg"><g clip-path="url(#dclip0_305_60)"><path d="M3.95833 20H16.0417C17.0911 19.9987 18.0971 19.5812 18.8392 18.8392C19.5812 18.0971 19.9987 17.0911 20 16.0417V3.95833C19.9987 2.90892 19.5812 1.90288 18.8392 1.16083C18.0971 0.418785 17.0911 0.00132306 16.0417 0L3.95833 0C2.90892 0.00132306 1.90288 0.418785 1.16083 1.16083C0.418785 1.90288 0.00132306 2.90892 0 3.95833L0 16.0417C0.00132306 17.0911 0.418785 18.0971 1.16083 18.8392C1.90288 19.5812 2.90892 19.9987 3.95833 20ZM1.25 3.95833C1.25088 3.24031 1.53651 2.55195 2.04423 2.04423C2.55195 1.53651 3.24031 1.25088 3.95833 1.25H16.0417C16.7597 1.25088 17.4481 1.53651 17.9558 2.04423C18.4635 2.55195 18.7491 3.24031 18.75 3.95833V16.0417C18.7491 16.7597 18.4635 17.4481 17.9558 17.9558C17.4481 18.4635 16.7597 18.7491 16.0417 18.75H3.95833C3.24031 18.7491 2.55195 18.4635 2.04423 17.9558C1.53651 17.4481 1.25088 16.7597 1.25 16.0417V3.95833Z"/><path d="M9.99994 15.1083C12.8166 15.1083 15.1083 12.8167 15.1083 10C15.1083 7.18333 12.8166 4.89166 9.99994 4.89166C7.18327 4.89166 4.8916 7.18333 4.8916 10C4.8916 12.8167 7.18327 15.1083 9.99994 15.1083ZM9.99994 6.14166C12.1274 6.14166 13.8583 7.8725 13.8583 10C13.8583 12.1275 12.1274 13.8583 9.99994 13.8583C7.87244 13.8583 6.1416 12.1275 6.1416 10C6.1416 7.8725 7.87244 6.14166 9.99994 6.14166ZM15.2983 6.135C16.1199 6.135 16.7391 5.51833 16.7391 4.70083C16.7391 3.84833 16.0874 3.26666 15.2991 3.26666C14.4774 3.26666 13.8583 3.88333 13.8583 4.70083C13.8583 5.55166 14.5066 6.135 15.2983 6.135ZM15.4458 4.56333C15.7091 4.79583 15.1083 5.07833 15.1083 4.70166C15.1083 4.47666 15.4141 4.535 15.4458 4.56333Z"/></g><defs><clipPath id="dclip0_305_60"><rect width="20" height="20"/></clipPath></defs></symbol><symbol viewBox="0 0 24 24" id="mail" xmlns="http://www.w3.org/2000/svg"><path d="M21 3.75H3C2.40345 3.7506 1.8315 3.98784 1.40967 4.40967C0.98784 4.8315 0.750596 5.40345 0.75 6V19.5C0.750596 20.0966 0.98784 20.6685 1.40967 21.0903C1.8315 21.5122 2.40345 21.7494 3 21.75H21C21.5966 21.7494 22.1685 21.5122 22.5903 21.0903C23.0122 20.6685 23.2494 20.0966 23.25 19.5V6C23.2494 5.40345 23.0122 4.8315 22.5903 4.40967C22.1685 3.98784 21.5966 3.7506 21 3.75ZM21.75 19.1895L16.6553 14.0947C16.5138 13.9581 16.3243 13.8825 16.1277 13.8842C15.9311 13.886 15.7429 13.9648 15.6039 14.1039C15.4648 14.2429 15.386 14.4311 15.3842 14.6277C15.3825 14.8243 15.4581 15.0138 15.5947 15.1553L20.6895 20.25H3.3105L8.40525 15.1553C8.54187 15.0138 8.61746 14.8243 8.61576 14.6277C8.61405 14.4311 8.53517 14.2429 8.39611 14.1039C8.25706 13.9648 8.06895 13.886 7.8723 13.8842C7.67565 13.8825 7.4862 13.9581 7.34475 14.0947L2.25 19.1895V8.20725L10.692 14.2372C11.0756 14.505 11.5322 14.6486 12 14.6486C12.4678 14.6486 12.9244 14.505 13.308 14.2372L21.75 8.20725V19.1895ZM3 5.25H21C21.1989 5.2502 21.3895 5.32928 21.5301 5.46989C21.6707 5.6105 21.7498 5.80115 21.75 6V6.36375L12.4357 13.017C12.3085 13.1079 12.156 13.1568 11.9996 13.1568C11.8432 13.1568 11.6907 13.1079 11.5635 13.017L2.25 6.3645V6C2.2502 5.80115 2.32928 5.6105 2.46989 5.46989C2.6105 5.32928 2.80115 5.2502 3 5.25Z"/></symbol><symbol viewBox="0 0 45 45" id="map" xmlns="http://www.w3.org/2000/svg"><path d="M33.75 1.40625C31.1402 1.40923 28.6381 2.44729 26.7927 4.29271C24.9473 6.13812 23.9092 8.64019 23.9063 11.25C23.9062 20.4202 32.7417 24.9736 33.1172 25.1634C33.3143 25.2595 33.5307 25.3095 33.75 25.3095C33.9693 25.3095 34.1857 25.2595 34.3828 25.1634C34.7569 24.9736 43.5938 20.4216 43.5938 11.25C43.5908 8.64019 42.5527 6.13812 40.7073 4.29271C38.8619 2.44729 36.3598 1.40923 33.75 1.40625ZM33.75 22.2848C31.912 21.1458 26.7188 17.3869 26.7188 11.25C26.7188 9.3852 27.4595 7.59677 28.7782 6.27816C30.0968 4.95954 31.8852 4.21875 33.75 4.21875C35.6148 4.21875 37.4032 4.95954 38.7218 6.27816C40.0405 7.59677 40.7812 9.3852 40.7812 11.25C40.7812 17.3883 35.5852 21.1472 33.75 22.2848Z"/><path d="M33.75 7.03116C32.9156 7.03116 32.1 7.27859 31.4062 7.74215C30.7124 8.20571 30.1717 8.86459 29.8524 9.63547C29.5331 10.4063 29.4495 11.2546 29.6123 12.0729C29.7751 12.8913 30.1769 13.643 30.7669 14.233C31.3569 14.823 32.1086 15.2248 32.927 15.3876C33.7453 15.5504 34.5936 15.4668 35.3644 15.1475C36.1353 14.8282 36.7942 14.2875 37.2578 13.5937C37.7213 12.9 37.9688 12.0843 37.9688 11.2499C37.9676 10.1314 37.5228 9.05897 36.7319 8.26804C35.9409 7.47711 34.8685 7.03228 33.75 7.03116ZM33.75 12.6562C33.4719 12.6562 33.2 12.5737 32.9687 12.4192C32.7375 12.2646 32.5572 12.045 32.4508 11.7881C32.3444 11.5311 32.3165 11.2484 32.3708 10.9756C32.425 10.7028 32.559 10.4522 32.7556 10.2555C32.9523 10.0589 33.2029 9.92494 33.4757 9.87068C33.7484 9.81642 34.0312 9.84427 34.2881 9.95071C34.5451 10.0571 34.7647 10.2374 34.9193 10.4686C35.0738 10.6999 35.1562 10.9718 35.1562 11.2499C35.1562 11.6229 35.0081 11.9806 34.7444 12.2443C34.4806 12.508 34.123 12.6562 33.75 12.6562ZM36.5625 27.3655C36.1895 27.3655 35.8319 27.5137 35.5681 27.7774C35.3044 28.0411 35.1562 28.3988 35.1562 28.7718V35.6933L26.7188 39.9121V24.4546C26.7188 24.0816 26.5706 23.724 26.3069 23.4602C26.0431 23.1965 25.6855 23.0483 25.3125 23.0483C24.9395 23.0483 24.5819 23.1965 24.3181 23.4602C24.0544 23.724 23.9062 24.0816 23.9062 24.4546V39.6491L15.4688 34.3757V8.42335L18.9183 10.9883C19.2178 11.2108 19.5934 11.3052 19.9624 11.2507C20.3315 11.1963 20.6639 10.9974 20.8863 10.698C21.1088 10.3985 21.2032 10.0229 21.1487 9.65379C21.0943 9.28471 20.8954 8.95238 20.5959 8.72991L14.9006 4.4971C14.6904 4.34487 14.4429 4.25245 14.1844 4.22966C13.9259 4.20688 13.6661 4.25459 13.4325 4.36772L2.1825 9.99272C1.94921 10.1096 1.75305 10.2891 1.61596 10.5112C1.47887 10.7332 1.40626 10.989 1.40625 11.2499V42.1874C1.40642 42.4384 1.47365 42.6848 1.60097 42.9012C1.7283 43.1175 1.9111 43.2959 2.13047 43.4179C2.35068 43.5377 2.59862 43.5973 2.84924 43.5906C3.09986 43.584 3.34428 43.5113 3.55781 43.3799L14.0625 36.8127L24.5728 43.3841C24.7764 43.511 25.0092 43.5833 25.2489 43.5941C25.4885 43.605 25.7269 43.554 25.9411 43.446L37.1911 37.821C37.4249 37.7042 37.6214 37.5246 37.7588 37.3022C37.8962 37.0799 37.9689 36.8237 37.9688 36.5624V28.7718C37.9688 28.3988 37.8206 28.0411 37.5569 27.7774C37.2931 27.5137 36.9355 27.3655 36.5625 27.3655ZM4.21875 12.119L12.6562 7.90022V34.3757L4.21875 39.6491V12.119Z"/></symbol><symbol viewBox="0 0 64 64" xml:space="preserve" id="order" xmlns="http://www.w3.org/2000/svg"><g><g data-name="Layer 13"><path d="m25.485 21.857 5 3a1 1 0 0 0 1.03 0l5-3A1 1 0 0 0 37 21v-6a1 1 0 0 0-.485-.857l-5-3a1 1 0 0 0-1.03 0l-5 3A1 1 0 0 0 25 15v6a1 1 0 0 0 .485.857ZM27 16.766l3 1.8v3.668l-3-1.8Zm5 5.468v-3.668l3-1.8v3.668Zm-1-9.068L34.056 15 31 16.834 27.944 15ZM27 27h8v2h-8zM24 31h14v2H24z" opacity="1" data-original="#000000"/><path d="M60.264 44.183A9.6 9.6 0 0 0 53.77 36.2l-2.356-.785-.384-.48A5.134 5.134 0 0 0 47 33a2.98 2.98 0 0 0-.939.159l-1.646-2.742A2.919 2.919 0 0 0 42 29.011v-1.133a5.879 5.879 0 0 0 1.473-.5l1.949-.975a2.844 2.844 0 0 0 .394-4.856l.431-.173a2.787 2.787 0 0 0 .074-5.145A3.246 3.246 0 0 0 43.754 11a7.165 7.165 0 0 0-1.728.212l-.026.007v-.868l3.231-4.04A3.507 3.507 0 0 0 46 4.121a3.121 3.121 0 0 0-5.328-2.207l-.072.071A3.967 3.967 0 0 0 38 1H24a4 4 0 0 0-4 4v2.115a2.694 2.694 0 0 0-3.346 1.76l-3.969 11.911A13.276 13.276 0 0 0 12 25v11.018a.98.98 0 0 0-.824.416l-11 16 1.648 1.132 5.769-8.391 13.291 8.307L19.02 62.8l1.96.392 1.969-9.841 3.919-6.851a1 1 0 0 0-.327-1.337l-.193-.125L29.768 41H35v4a13.276 13.276 0 0 0 .685 4.214l1.679 5.04a10.174 10.174 0 0 0 3.56 4.938l3.287 2.466.894 1.789 1.79-.894-1-2a1 1 0 0 0-.3-.353l-3.477-2.608a8.2 8.2 0 0 1-2.862-3.971l-1.68-5.04A11.3 11.3 0 0 1 37 45v-5.315a.685.685 0 0 1 1.349-.167l.2.784A15.272 15.272 0 0 1 39 44v2a1 1 0 0 0 .4.8l4 3A1 1 0 0 0 45 49v-5a10.371 10.371 0 0 0-.9-4.234l-2.748-6.18a4.1 4.1 0 0 1-.352-1.67.915.915 0 0 1 1.7-.471l5.443 9.07 1.714-1.03-2.679-4.465a3.13 3.13 0 0 1 2.29 1.166l2.751 3.439 1.562-1.25-.006-.008a7.515 7.515 0 0 1 4.5 6.05l1.73 14.7a1.023 1.023 0 0 0 .1.33l2 4 1.79-.894-1.922-3.844ZM44.527 24.618l-1.949.975a3.878 3.878 0 0 1-1.724.407.854.854 0 0 1-.381-1.618l1.949-.975A3.878 3.878 0 0 1 44.146 23a.854.854 0 0 1 .381 1.618Zm.978-5.1-2.752 1.1a5.266 5.266 0 0 1-1.964.382.789.789 0 0 1-.294-1.521l2.752-1.1A5.266 5.266 0 0 1 45.211 18a.789.789 0 0 1 .294 1.521Zm-3-6.368a5.13 5.13 0 0 1 1.249-.15 1.246 1.246 0 0 1 .3 2.455l-1.566.392a5.13 5.13 0 0 1-1.242.153 1.246 1.246 0 0 1-.3-2.455ZM42.879 3A1.122 1.122 0 0 1 44 4.121a1.51 1.51 0 0 1-.33.941L42 7.149V5a3.971 3.971 0 0 0-.247-1.339l.333-.333A1.133 1.133 0 0 1 42.879 3ZM33.72 3l-.5 2h-4.439l-.5-2ZM21.648 51.6 8.727 43.525l3.547-5.16 12.387 7.963Zm3-7.657L14 37.1V25a11.3 11.3 0 0 1 .581-3.581l3.97-11.911A.744.744 0 0 1 20 9.744v6.134l-.97 3.879a1 1 0 0 0 0 .486l.97 3.879V37a4 4 0 0 0 4 4h3.146ZM37.685 37a2.682 2.682 0 0 0-2.585 2H24a2 2 0 0 1-2-2V5a2 2 0 0 1 2-2h2.22l.811 3.243A1 1 0 0 0 28 7h6a1 1 0 0 0 .97-.757L35.781 3H38a2 2 0 0 1 2 2v6.761a3.229 3.229 0 0 0-.244 5.86 2.777 2.777 0 0 0-.272 5.037 2.832 2.832 0 0 0 .519 5.2v1.88a2.9 2.9 0 0 0-1 2.181 6.09 6.09 0 0 0 .526 2.481L40 35.463V37a1.985 1.985 0 0 1-.259.969A2.674 2.674 0 0 0 37.685 37ZM43 44v3l-2-1.5V44a17.329 17.329 0 0 0-.458-3.923 3.968 3.968 0 0 0 .978-1.193l.753 1.7A8.345 8.345 0 0 1 43 44Z" opacity="1" data-original="#000000"/></g></g></symbol><symbol viewBox="0 0 481 481.391" xml:space="preserve" id="pay" xmlns="http://www.w3.org/2000/svg"><g><path d="M480.195 281.39h-16v-64c-.027-22.077-17.918-39.972-40-40H401.5l21.602-37.43a24.028 24.028 0 0 0 2.398-18.226 24.001 24.001 0 0 0-11.2-14.574l-180.183-104c-11.484-6.543-26.09-2.617-32.746 8.8l-95.473 165.43H40.195c-22.082.028-39.972 17.923-40 40v224c.028 22.083 17.918 39.973 40 40h384c22.082-.027 39.973-17.917 40-40v-64h16zM409.27 131.954l-44.73 77.438H219.882l84.855-147.016 101.602 58.656a8.108 8.108 0 0 1 2.93 10.922zm-244.817 77.438 98.75-170.993 27.68 16-89.465 154.993zm50.832-189.43a7.996 7.996 0 0 1 10.91-2.922L249.34 30.4 145.98 209.39h-40.09zm232.91 421.43c0 13.254-10.746 24-24 24h-384c-13.254 0-24-10.746-24-24v-224c0-13.254 10.746-24 24-24H96.66l-9.265 16h-39.2v16h368v-16h-33.183l9.246-16h31.937c13.254 0 24 10.746 24 24v64h-88c-22.082.027-39.972 17.921-40 40v16c.028 22.082 17.918 39.972 40 40h88zm16-80h-104c-13.254 0-24-10.746-24-24v-16c0-13.254 10.746-24 24-24h104zm0 0" opacity="1" data-original="#000000"/><path d="M344.195 329.39c0 13.255 10.746 24 24 24s24-10.745 24-24-10.746-24-24-24-24 10.747-24 24zm24-8a8 8 0 1 1 0 16.001 8 8 0 0 1 0-16zm0 0" opacity="1" data-original="#000000"/></g></symbol><symbol viewBox="0 0 24 24" id="phone" xmlns="http://www.w3.org/2000/svg"><g clip-path="url(#iclip0_249_115)"><path d="M3.42003 12.9473C6.18537 16.4473 9.44056 19.5308 13.0853 22.1025C14.2144 22.8803 15.5651 23.2715 16.9351 23.2174C18.3051 23.1633 19.6208 22.6669 20.685 21.8025L22.359 20.385C22.6392 20.1356 22.8624 19.8288 23.0135 19.4856C23.1647 19.1423 23.2402 18.7705 23.235 18.3955C23.2298 18.0205 23.144 17.6509 22.9834 17.312C22.8228 16.973 22.5912 16.6726 22.3043 16.431L19.008 13.7933C17.613 12.7148 15.9195 13.2878 15.0053 14.6783C14.9119 14.7864 14.7981 14.875 14.6704 14.9389C14.5427 15.0029 14.4036 15.0409 14.2611 15.0509C14.1186 15.0609 13.9756 15.0425 13.8402 14.997C13.7048 14.9514 13.5798 14.8796 13.4723 14.7855C11.9653 13.4708 10.5495 12.055 9.23478 10.548C9.14129 10.4403 9.06994 10.3152 9.0248 10.1798C8.97967 10.0445 8.96164 9.90164 8.97174 9.75935C8.98183 9.61706 9.01987 9.47815 9.08366 9.35056C9.14745 9.22297 9.23576 9.1092 9.34353 9.01575L9.86628 8.58075C10.3789 8.14997 10.7033 7.53636 10.7708 6.87021C10.8383 6.20407 10.6435 5.53784 10.2278 5.013L7.59003 1.7175C7.35012 1.42814 7.05027 1.19429 6.71119 1.03209C6.37212 0.869882 6.00188 0.783184 5.62604 0.777979C5.25019 0.772774 4.8777 0.849185 4.53426 1.00194C4.19082 1.15469 3.88461 1.38015 3.63678 1.66275L2.21928 3.3375C-0.422972 6.54375 0.870028 10.1445 3.42003 12.9473ZM3.36453 4.305L4.78128 2.6325C4.88386 2.51525 5.0107 2.42169 5.15301 2.35828C5.29531 2.29488 5.4497 2.26315 5.60548 2.26529C5.76125 2.26743 5.91471 2.30339 6.05522 2.37067C6.19573 2.43796 6.31995 2.53498 6.41928 2.655L9.05628 5.952C9.22858 6.16932 9.3093 6.44529 9.28129 6.72121C9.25328 6.99713 9.11874 7.25124 8.90628 7.4295L8.38428 7.8645C7.86703 8.31844 7.54811 8.95688 7.49582 9.64308C7.44353 10.3293 7.66203 11.0087 8.10453 11.5358C9.46432 13.0941 10.9284 14.5582 12.4868 15.918C12.7459 16.1413 13.0466 16.3112 13.3716 16.418C13.6966 16.5248 14.0394 16.5664 14.3805 16.5404C14.7216 16.5144 15.0542 16.4214 15.3592 16.2666C15.6642 16.1117 15.9357 15.8982 16.158 15.6383L16.593 15.1155C16.7715 14.9034 17.0256 14.7691 17.3014 14.7411C17.5772 14.7131 17.8531 14.7936 18.0705 14.9655L21.3675 17.604C21.488 17.703 21.5854 17.8271 21.653 17.9677C21.7206 18.1082 21.7567 18.2618 21.7589 18.4178C21.761 18.5737 21.7291 18.7283 21.6654 18.8706C21.6017 19.013 21.5077 19.1397 21.39 19.242L19.716 20.658C18.9149 21.3277 17.9141 21.7127 16.8707 21.7526C15.8272 21.7925 14.8 21.4851 13.95 20.8785C9.7578 17.9195 6.10302 14.2647 3.14403 10.0725C2.53769 9.22243 2.23041 8.19527 2.27031 7.15187C2.31021 6.10848 2.69504 5.10778 3.36453 4.3065V4.305ZM13.5 0.75C13.3011 0.75 13.1103 0.829018 12.9697 0.96967C12.829 1.11032 12.75 1.30109 12.75 1.5C12.75 1.69891 12.829 1.88968 12.9697 2.03033C13.1103 2.17098 13.3011 2.25 13.5 2.25C15.6873 2.25238 17.7844 3.12234 19.331 4.669C20.8777 6.21566 21.7476 8.3127 21.75 10.5C21.75 10.6989 21.829 10.8897 21.9697 11.0303C22.1103 11.171 22.3011 11.25 22.5 11.25C22.6989 11.25 22.8897 11.171 23.0304 11.0303C23.171 10.8897 23.25 10.6989 23.25 10.5C23.2472 7.91499 22.2191 5.43666 20.3913 3.60878C18.5634 1.7809 16.085 0.752779 13.5 0.75Z"/><path d="M18 10.5C18 10.6989 18.079 10.8897 18.2197 11.0303C18.3603 11.171 18.5511 11.25 18.75 11.25C18.9489 11.25 19.1397 11.171 19.2803 11.0303C19.421 10.8897 19.5 10.6989 19.5 10.5C19.498 8.90931 18.8652 7.38434 17.7404 6.25955C16.6157 5.13476 15.0907 4.50198 13.5 4.5C13.3011 4.5 13.1103 4.57902 12.9697 4.71967C12.829 4.86032 12.75 5.05109 12.75 5.25C12.75 5.44891 12.829 5.63968 12.9697 5.78033C13.1103 5.92098 13.3011 6 13.5 6C14.693 6.00139 15.8368 6.47594 16.6804 7.31955C17.5241 8.16317 17.9986 9.30695 18 10.5Z"/></g><defs><clipPath id="iclip0_249_115"><rect width="24" height="24"/></clipPath></defs></symbol><symbol viewBox="0 0 20 20" id="telegram" xmlns="http://www.w3.org/2000/svg"><g clip-path="url(#jclip0_305_43)"><path d="M10 20C15.5142 20 20 15.5142 20 10C20 4.48583 15.5142 0 10 0C4.48583 0 0 4.48583 0 10C0 15.5142 4.48583 20 10 20ZM10 1.25C14.825 1.25 18.75 5.175 18.75 10C18.75 14.825 14.825 18.75 10 18.75C5.175 18.75 1.25 14.825 1.25 10C1.25 5.175 5.175 1.25 10 1.25Z"/><path d="M6.58009 11.7958L7.88676 11.2283L7.52009 11.5958C7.40285 11.7129 7.3369 11.8718 7.33676 12.0375V14.4833C7.33676 15.0433 8.01342 15.315 8.40342 14.925L9.71509 13.6133L12.5734 15.0425C12.6602 15.0858 12.7559 15.1084 12.8529 15.1083C12.9499 15.1083 13.0456 15.0857 13.1324 15.0422C13.2191 14.9988 13.2946 14.9358 13.3528 14.8582C13.4109 14.7806 13.4503 14.6904 13.4676 14.595L15.0984 5.62749C15.1182 5.51798 15.1084 5.40518 15.07 5.30071C15.0317 5.19625 14.9662 5.10389 14.8803 5.03317C14.7943 4.96245 14.6911 4.91592 14.5812 4.89837C14.4713 4.88082 14.3588 4.89288 14.2551 4.93333L3.65842 9.08083C3.55095 9.12284 3.45721 9.19379 3.38758 9.28581C3.31796 9.37783 3.27516 9.48733 3.26395 9.60217C3.25273 9.71702 3.27353 9.83273 3.32403 9.93648C3.37454 10.0402 3.45278 10.128 3.55009 10.19L5.99509 11.75C6.17009 11.8617 6.39092 11.8792 6.58009 11.7958ZM13.6684 6.50666L12.3876 13.5525L9.87093 12.295C9.75368 12.2363 9.62091 12.216 9.4915 12.2371C9.36208 12.2582 9.24261 12.3196 9.15009 12.4125L8.58676 12.9758V12.2983L11.0926 9.79249C11.5784 9.30666 11.0318 8.50499 10.4018 8.77749L6.38759 10.5192L5.25926 9.79916L13.6684 6.50666Z"/></g><defs><clipPath id="jclip0_305_43"><rect width="20" height="20"/></clipPath></defs></symbol><symbol viewBox="0 0 20 20" id="whatsapp" xmlns="http://www.w3.org/2000/svg"><g clip-path="url(#kclip0_305_56)"><path d="M11.1083 15.0633C14.4833 15.8667 15.6708 12.98 15.0758 11.9025C14.8374 11.4725 12.6958 10.6467 12.5916 10.6067C11.6716 10.2717 11.3316 10.8967 10.6941 11.7192C9.46992 11.1067 8.64909 10.6242 7.80575 9.25251C7.85325 9.19334 7.91659 9.12334 7.96409 9.07001C8.25909 8.74001 8.81159 8.12501 8.43492 7.37251C8.11825 6.74167 7.96075 6.30167 7.84492 5.97917C7.50909 5.04501 7.25325 4.79167 6.09659 4.79167C4.89242 4.79167 3.95825 6.37417 3.95825 7.73667C3.95825 10.7108 7.95659 14.3108 11.1083 15.0633ZM6.09659 6.04167C6.34659 6.04167 6.47325 6.05001 6.53659 6.06001C6.67159 6.34584 6.80825 6.94251 7.31159 7.87084C7.23325 8.16334 6.12075 8.84917 6.63659 9.73584C7.69075 11.5258 8.74575 12.1467 10.2574 12.8983C11.2641 13.3533 11.5858 12.5292 12.2241 11.805C12.5199 11.925 13.5183 12.3667 13.9566 12.5883C13.9174 13.4517 13.0841 14.2483 11.3983 13.8467C8.50492 13.1558 5.20742 9.90084 5.20742 7.73584C5.20825 6.91251 5.78575 6.04167 6.09659 6.04167Z"/><path d="M0.0691433 19.2375C0.0436142 19.3303 0.0398474 19.4277 0.0581364 19.5221C0.0764254 19.6166 0.116276 19.7056 0.174584 19.7821C0.232893 19.8586 0.308084 19.9207 0.394299 19.9634C0.480515 20.0061 0.575428 20.0283 0.671643 20.0283C0.821643 20.0283 0.576643 20.0667 5.54498 18.7783C7.56748 19.8083 9.10498 19.7758 10.0866 19.8683C18.8825 19.8683 23.1908 9.14083 17.1375 2.89917C8.83998 -5.12083 -4.08252 4.84583 1.32498 14.6717L0.0691433 19.2375ZM16.1425 3.6775C16.2866 3.94083 20.4216 7.67 18.1191 13.2425C16.7016 16.6758 13.4308 18.7917 9.76581 18.5933C6.78414 18.4275 6.01248 17.3625 5.46331 17.5083L1.56081 18.525L2.59831 14.755C2.62047 14.6751 2.6265 14.5916 2.61605 14.5093C2.60561 14.427 2.5789 14.3477 2.53748 14.2758C-2.44836 5.6725 8.82581 -3.17333 16.1425 3.6775Z"/></g><defs><clipPath id="kclip0_305_56"><rect width="20" height="20"/></clipPath></defs></symbol></svg>