<svg width="20" height="20" viewBox="0 0 20 20" fill="none" xmlns="http://www.w3.org/2000/svg">
<g clip-path="url(#clip0_305_60)">
<path d="M3.95833 20H16.0417C17.0911 19.9987 18.0971 19.5812 18.8392 18.8392C19.5812 18.0971 19.9987 17.0911 20 16.0417V3.95833C19.9987 2.90892 19.5812 1.90288 18.8392 1.16083C18.0971 0.418785 17.0911 0.00132306 16.0417 0L3.95833 0C2.90892 0.00132306 1.90288 0.418785 1.16083 1.16083C0.418785 1.90288 0.00132306 2.90892 0 3.95833L0 16.0417C0.00132306 17.0911 0.418785 18.0971 1.16083 18.8392C1.90288 19.5812 2.90892 19.9987 3.95833 20ZM1.25 3.95833C1.25088 3.24031 1.53651 2.55195 2.04423 2.04423C2.55195 1.53651 3.24031 1.25088 3.95833 1.25H16.0417C16.7597 1.25088 17.4481 1.53651 17.9558 2.04423C18.4635 2.55195 18.7491 3.24031 18.75 3.95833V16.0417C18.7491 16.7597 18.4635 17.4481 17.9558 17.9558C17.4481 18.4635 16.7597 18.7491 16.0417 18.75H3.95833C3.24031 18.7491 2.55195 18.4635 2.04423 17.9558C1.53651 17.4481 1.25088 16.7597 1.25 16.0417V3.95833Z" fill="white"/>
<path d="M9.99994 15.1083C12.8166 15.1083 15.1083 12.8167 15.1083 10C15.1083 7.18333 12.8166 4.89166 9.99994 4.89166C7.18327 4.89166 4.8916 7.18333 4.8916 10C4.8916 12.8167 7.18327 15.1083 9.99994 15.1083ZM9.99994 6.14166C12.1274 6.14166 13.8583 7.8725 13.8583 10C13.8583 12.1275 12.1274 13.8583 9.99994 13.8583C7.87244 13.8583 6.1416 12.1275 6.1416 10C6.1416 7.8725 7.87244 6.14166 9.99994 6.14166ZM15.2983 6.135C16.1199 6.135 16.7391 5.51833 16.7391 4.70083C16.7391 3.84833 16.0874 3.26666 15.2991 3.26666C14.4774 3.26666 13.8583 3.88333 13.8583 4.70083C13.8583 5.55166 14.5066 6.135 15.2983 6.135ZM15.4458 4.56333C15.7091 4.79583 15.1083 5.07833 15.1083 4.70166C15.1083 4.47666 15.4141 4.535 15.4458 4.56333Z" fill="white"/>
</g>
<defs>
<clipPath id="clip0_305_60">
<rect width="20" height="20" fill="white"/>
</clipPath>
</defs>
</svg>
