<svg width="24" height="24" viewBox="0 0 24 24" fill="none" xmlns="http://www.w3.org/2000/svg">
<path d="M21 3.75H3C2.40345 3.7506 1.8315 3.98784 1.40967 4.40967C0.98784 4.8315 0.750596 5.40345 0.75 6V19.5C0.750596 20.0966 0.98784 20.6685 1.40967 21.0903C1.8315 21.5122 2.40345 21.7494 3 21.75H21C21.5966 21.7494 22.1685 21.5122 22.5903 21.0903C23.0122 20.6685 23.2494 20.0966 23.25 19.5V6C23.2494 5.40345 23.0122 4.8315 22.5903 4.40967C22.1685 3.98784 21.5966 3.7506 21 3.75ZM21.75 19.1895L16.6553 14.0947C16.5138 13.9581 16.3243 13.8825 16.1277 13.8842C15.9311 13.886 15.7429 13.9648 15.6039 14.1039C15.4648 14.2429 15.386 14.4311 15.3842 14.6277C15.3825 14.8243 15.4581 15.0138 15.5947 15.1553L20.6895 20.25H3.3105L8.40525 15.1553C8.54187 15.0138 8.61746 14.8243 8.61576 14.6277C8.61405 14.4311 8.53517 14.2429 8.39611 14.1039C8.25706 13.9648 8.06895 13.886 7.8723 13.8842C7.67565 13.8825 7.4862 13.9581 7.34475 14.0947L2.25 19.1895V8.20725L10.692 14.2372C11.0756 14.505 11.5322 14.6486 12 14.6486C12.4678 14.6486 12.9244 14.505 13.308 14.2372L21.75 8.20725V19.1895ZM3 5.25H21C21.1989 5.2502 21.3895 5.32928 21.5301 5.46989C21.6707 5.6105 21.7498 5.80115 21.75 6V6.36375L12.4357 13.017C12.3085 13.1079 12.156 13.1568 11.9996 13.1568C11.8432 13.1568 11.6907 13.1079 11.5635 13.017L2.25 6.3645V6C2.2502 5.80115 2.32928 5.6105 2.46989 5.46989C2.6105 5.32928 2.80115 5.2502 3 5.25Z" fill="white"/>
</svg>
