<svg width="45" height="45" viewBox="0 0 45 45" fill="none" xmlns="http://www.w3.org/2000/svg">
<path d="M33.75 1.40625C31.1402 1.40923 28.6381 2.44729 26.7927 4.29271C24.9473 6.13812 23.9092 8.64019 23.9063 11.25C23.9062 20.4202 32.7417 24.9736 33.1172 25.1634C33.3143 25.2595 33.5307 25.3095 33.75 25.3095C33.9693 25.3095 34.1857 25.2595 34.3828 25.1634C34.7569 24.9736 43.5938 20.4216 43.5938 11.25C43.5908 8.64019 42.5527 6.13812 40.7073 4.29271C38.8619 2.44729 36.3598 1.40923 33.75 1.40625ZM33.75 22.2848C31.912 21.1458 26.7188 17.3869 26.7188 11.25C26.7188 9.3852 27.4595 7.59677 28.7782 6.27816C30.0968 4.95954 31.8852 4.21875 33.75 4.21875C35.6148 4.21875 37.4032 4.95954 38.7218 6.27816C40.0405 7.59677 40.7812 9.3852 40.7812 11.25C40.7812 17.3883 35.5852 21.1472 33.75 22.2848Z" fill="white"/>
<path d="M33.75 7.03116C32.9156 7.03116 32.1 7.27859 31.4062 7.74215C30.7124 8.20571 30.1717 8.86459 29.8524 9.63547C29.5331 10.4063 29.4495 11.2546 29.6123 12.0729C29.7751 12.8913 30.1769 13.643 30.7669 14.233C31.3569 14.823 32.1086 15.2248 32.927 15.3876C33.7453 15.5504 34.5936 15.4668 35.3644 15.1475C36.1353 14.8282 36.7942 14.2875 37.2578 13.5937C37.7213 12.9 37.9688 12.0843 37.9688 11.2499C37.9676 10.1314 37.5228 9.05897 36.7319 8.26804C35.9409 7.47711 34.8685 7.03228 33.75 7.03116ZM33.75 12.6562C33.4719 12.6562 33.2 12.5737 32.9687 12.4192C32.7375 12.2646 32.5572 12.045 32.4508 11.7881C32.3444 11.5311 32.3165 11.2484 32.3708 10.9756C32.425 10.7028 32.559 10.4522 32.7556 10.2555C32.9523 10.0589 33.2029 9.92494 33.4757 9.87068C33.7484 9.81642 34.0312 9.84427 34.2881 9.95071C34.5451 10.0571 34.7647 10.2374 34.9193 10.4686C35.0738 10.6999 35.1562 10.9718 35.1562 11.2499C35.1562 11.6229 35.0081 11.9806 34.7444 12.2443C34.4806 12.508 34.123 12.6562 33.75 12.6562ZM36.5625 27.3655C36.1895 27.3655 35.8319 27.5137 35.5681 27.7774C35.3044 28.0411 35.1562 28.3988 35.1562 28.7718V35.6933L26.7188 39.9121V24.4546C26.7188 24.0816 26.5706 23.724 26.3069 23.4602C26.0431 23.1965 25.6855 23.0483 25.3125 23.0483C24.9395 23.0483 24.5819 23.1965 24.3181 23.4602C24.0544 23.724 23.9062 24.0816 23.9062 24.4546V39.6491L15.4688 34.3757V8.42335L18.9183 10.9883C19.2178 11.2108 19.5934 11.3052 19.9624 11.2507C20.3315 11.1963 20.6639 10.9974 20.8863 10.698C21.1088 10.3985 21.2032 10.0229 21.1487 9.65379C21.0943 9.28471 20.8954 8.95238 20.5959 8.72991L14.9006 4.4971C14.6904 4.34487 14.4429 4.25245 14.1844 4.22966C13.9259 4.20688 13.6661 4.25459 13.4325 4.36772L2.1825 9.99272C1.94921 10.1096 1.75305 10.2891 1.61596 10.5112C1.47887 10.7332 1.40626 10.989 1.40625 11.2499V42.1874C1.40642 42.4384 1.47365 42.6848 1.60097 42.9012C1.7283 43.1175 1.9111 43.2959 2.13047 43.4179C2.35068 43.5377 2.59862 43.5973 2.84924 43.5906C3.09986 43.584 3.34428 43.5113 3.55781 43.3799L14.0625 36.8127L24.5728 43.3841C24.7764 43.511 25.0092 43.5833 25.2489 43.5941C25.4885 43.605 25.7269 43.554 25.9411 43.446L37.1911 37.821C37.4249 37.7042 37.6214 37.5246 37.7588 37.3022C37.8962 37.0799 37.9689 36.8237 37.9688 36.5624V28.7718C37.9688 28.3988 37.8206 28.0411 37.5569 27.7774C37.2931 27.5137 36.9355 27.3655 36.5625 27.3655ZM4.21875 12.119L12.6562 7.90022V34.3757L4.21875 39.6491V12.119Z" fill="white"/>
</svg>
