<svg width="24" height="24" viewBox="0 0 24 24" fill="none" xmlns="http://www.w3.org/2000/svg">
<g clip-path="url(#clip0_249_115)">
<path d="M3.42003 12.9473C6.18537 16.4473 9.44056 19.5308 13.0853 22.1025C14.2144 22.8803 15.5651 23.2715 16.9351 23.2174C18.3051 23.1633 19.6208 22.6669 20.685 21.8025L22.359 20.385C22.6392 20.1356 22.8624 19.8288 23.0135 19.4856C23.1647 19.1423 23.2402 18.7705 23.235 18.3955C23.2298 18.0205 23.144 17.6509 22.9834 17.312C22.8228 16.973 22.5912 16.6726 22.3043 16.431L19.008 13.7933C17.613 12.7148 15.9195 13.2878 15.0053 14.6783C14.9119 14.7864 14.7981 14.875 14.6704 14.9389C14.5427 15.0029 14.4036 15.0409 14.2611 15.0509C14.1186 15.0609 13.9756 15.0425 13.8402 14.997C13.7048 14.9514 13.5798 14.8796 13.4723 14.7855C11.9653 13.4708 10.5495 12.055 9.23478 10.548C9.14129 10.4403 9.06994 10.3152 9.0248 10.1798C8.97967 10.0445 8.96164 9.90164 8.97174 9.75935C8.98183 9.61706 9.01987 9.47815 9.08366 9.35056C9.14745 9.22297 9.23576 9.1092 9.34353 9.01575L9.86628 8.58075C10.3789 8.14997 10.7033 7.53636 10.7708 6.87021C10.8383 6.20407 10.6435 5.53784 10.2278 5.013L7.59003 1.7175C7.35012 1.42814 7.05027 1.19429 6.71119 1.03209C6.37212 0.869882 6.00188 0.783184 5.62604 0.777979C5.25019 0.772774 4.8777 0.849185 4.53426 1.00194C4.19082 1.15469 3.88461 1.38015 3.63678 1.66275L2.21928 3.3375C-0.422972 6.54375 0.870028 10.1445 3.42003 12.9473ZM3.36453 4.305L4.78128 2.6325C4.88386 2.51525 5.0107 2.42169 5.15301 2.35828C5.29531 2.29488 5.4497 2.26315 5.60548 2.26529C5.76125 2.26743 5.91471 2.30339 6.05522 2.37067C6.19573 2.43796 6.31995 2.53498 6.41928 2.655L9.05628 5.952C9.22858 6.16932 9.3093 6.44529 9.28129 6.72121C9.25328 6.99713 9.11874 7.25124 8.90628 7.4295L8.38428 7.8645C7.86703 8.31844 7.54811 8.95688 7.49582 9.64308C7.44353 10.3293 7.66203 11.0087 8.10453 11.5358C9.46432 13.0941 10.9284 14.5582 12.4868 15.918C12.7459 16.1413 13.0466 16.3112 13.3716 16.418C13.6966 16.5248 14.0394 16.5664 14.3805 16.5404C14.7216 16.5144 15.0542 16.4214 15.3592 16.2666C15.6642 16.1117 15.9357 15.8982 16.158 15.6383L16.593 15.1155C16.7715 14.9034 17.0256 14.7691 17.3014 14.7411C17.5772 14.7131 17.8531 14.7936 18.0705 14.9655L21.3675 17.604C21.488 17.703 21.5854 17.8271 21.653 17.9677C21.7206 18.1082 21.7567 18.2618 21.7589 18.4178C21.761 18.5737 21.7291 18.7283 21.6654 18.8706C21.6017 19.013 21.5077 19.1397 21.39 19.242L19.716 20.658C18.9149 21.3277 17.9141 21.7127 16.8707 21.7526C15.8272 21.7925 14.8 21.4851 13.95 20.8785C9.7578 17.9195 6.10302 14.2647 3.14403 10.0725C2.53769 9.22243 2.23041 8.19527 2.27031 7.15187C2.31021 6.10848 2.69504 5.10778 3.36453 4.3065V4.305ZM13.5 0.75C13.3011 0.75 13.1103 0.829018 12.9697 0.96967C12.829 1.11032 12.75 1.30109 12.75 1.5C12.75 1.69891 12.829 1.88968 12.9697 2.03033C13.1103 2.17098 13.3011 2.25 13.5 2.25C15.6873 2.25238 17.7844 3.12234 19.331 4.669C20.8777 6.21566 21.7476 8.3127 21.75 10.5C21.75 10.6989 21.829 10.8897 21.9697 11.0303C22.1103 11.171 22.3011 11.25 22.5 11.25C22.6989 11.25 22.8897 11.171 23.0304 11.0303C23.171 10.8897 23.25 10.6989 23.25 10.5C23.2472 7.91499 22.2191 5.43666 20.3913 3.60878C18.5634 1.7809 16.085 0.752779 13.5 0.75Z" fill="white"/>
<path d="M18 10.5C18 10.6989 18.079 10.8897 18.2197 11.0303C18.3603 11.171 18.5511 11.25 18.75 11.25C18.9489 11.25 19.1397 11.171 19.2803 11.0303C19.421 10.8897 19.5 10.6989 19.5 10.5C19.498 8.90931 18.8652 7.38434 17.7404 6.25955C16.6157 5.13476 15.0907 4.50198 13.5 4.5C13.3011 4.5 13.1103 4.57902 12.9697 4.71967C12.829 4.86032 12.75 5.05109 12.75 5.25C12.75 5.44891 12.829 5.63968 12.9697 5.78033C13.1103 5.92098 13.3011 6 13.5 6C14.693 6.00139 15.8368 6.47594 16.6804 7.31955C17.5241 8.16317 17.9986 9.30695 18 10.5Z" fill="white"/>
</g>
<defs>
<clipPath id="clip0_249_115">
<rect width="24" height="24" fill="white"/>
</clipPath>
</defs>
</svg>
