<svg width="20" height="20" viewBox="0 0 20 20" fill="none" xmlns="http://www.w3.org/2000/svg">
<g clip-path="url(#clip0_305_43)">
<path d="M10 20C15.5142 20 20 15.5142 20 10C20 4.48583 15.5142 0 10 0C4.48583 0 0 4.48583 0 10C0 15.5142 4.48583 20 10 20ZM10 1.25C14.825 1.25 18.75 5.175 18.75 10C18.75 14.825 14.825 18.75 10 18.75C5.175 18.75 1.25 14.825 1.25 10C1.25 5.175 5.175 1.25 10 1.25Z" fill="white"/>
<path d="M6.58009 11.7958L7.88676 11.2283L7.52009 11.5958C7.40285 11.7129 7.3369 11.8718 7.33676 12.0375V14.4833C7.33676 15.0433 8.01342 15.315 8.40342 14.925L9.71509 13.6133L12.5734 15.0425C12.6602 15.0858 12.7559 15.1084 12.8529 15.1083C12.9499 15.1083 13.0456 15.0857 13.1324 15.0422C13.2191 14.9988 13.2946 14.9358 13.3528 14.8582C13.4109 14.7806 13.4503 14.6904 13.4676 14.595L15.0984 5.62749C15.1182 5.51798 15.1084 5.40518 15.07 5.30071C15.0317 5.19625 14.9662 5.10389 14.8803 5.03317C14.7943 4.96245 14.6911 4.91592 14.5812 4.89837C14.4713 4.88082 14.3588 4.89288 14.2551 4.93333L3.65842 9.08083C3.55095 9.12284 3.45721 9.19379 3.38758 9.28581C3.31796 9.37783 3.27516 9.48733 3.26395 9.60217C3.25273 9.71702 3.27353 9.83273 3.32403 9.93648C3.37454 10.0402 3.45278 10.128 3.55009 10.19L5.99509 11.75C6.17009 11.8617 6.39092 11.8792 6.58009 11.7958ZM13.6684 6.50666L12.3876 13.5525L9.87093 12.295C9.75368 12.2363 9.62091 12.216 9.4915 12.2371C9.36208 12.2582 9.24261 12.3196 9.15009 12.4125L8.58676 12.9758V12.2983L11.0926 9.79249C11.5784 9.30666 11.0318 8.50499 10.4018 8.77749L6.38759 10.5192L5.25926 9.79916L13.6684 6.50666Z" fill="white"/>
</g>
<defs>
<clipPath id="clip0_305_43">
<rect width="20" height="20" fill="white"/>
</clipPath>
</defs>
</svg>
