<svg width="20" height="20" viewBox="0 0 20 20" fill="none" xmlns="http://www.w3.org/2000/svg">
<g clip-path="url(#clip0_305_56)">
<path d="M11.1083 15.0633C14.4833 15.8667 15.6708 12.98 15.0758 11.9025C14.8374 11.4725 12.6958 10.6467 12.5916 10.6067C11.6716 10.2717 11.3316 10.8967 10.6941 11.7192C9.46992 11.1067 8.64909 10.6242 7.80575 9.25251C7.85325 9.19334 7.91659 9.12334 7.96409 9.07001C8.25909 8.74001 8.81159 8.12501 8.43492 7.37251C8.11825 6.74167 7.96075 6.30167 7.84492 5.97917C7.50909 5.04501 7.25325 4.79167 6.09659 4.79167C4.89242 4.79167 3.95825 6.37417 3.95825 7.73667C3.95825 10.7108 7.95659 14.3108 11.1083 15.0633ZM6.09659 6.04167C6.34659 6.04167 6.47325 6.05001 6.53659 6.06001C6.67159 6.34584 6.80825 6.94251 7.31159 7.87084C7.23325 8.16334 6.12075 8.84917 6.63659 9.73584C7.69075 11.5258 8.74575 12.1467 10.2574 12.8983C11.2641 13.3533 11.5858 12.5292 12.2241 11.805C12.5199 11.925 13.5183 12.3667 13.9566 12.5883C13.9174 13.4517 13.0841 14.2483 11.3983 13.8467C8.50492 13.1558 5.20742 9.90084 5.20742 7.73584C5.20825 6.91251 5.78575 6.04167 6.09659 6.04167Z" fill="white"/>
<path d="M0.0691433 19.2375C0.0436142 19.3303 0.0398474 19.4277 0.0581364 19.5221C0.0764254 19.6166 0.116276 19.7056 0.174584 19.7821C0.232893 19.8586 0.308084 19.9207 0.394299 19.9634C0.480515 20.0061 0.575428 20.0283 0.671643 20.0283C0.821643 20.0283 0.576643 20.0667 5.54498 18.7783C7.56748 19.8083 9.10498 19.7758 10.0866 19.8683C18.8825 19.8683 23.1908 9.14083 17.1375 2.89917C8.83998 -5.12083 -4.08252 4.84583 1.32498 14.6717L0.0691433 19.2375ZM16.1425 3.6775C16.2866 3.94083 20.4216 7.67 18.1191 13.2425C16.7016 16.6758 13.4308 18.7917 9.76581 18.5933C6.78414 18.4275 6.01248 17.3625 5.46331 17.5083L1.56081 18.525L2.59831 14.755C2.62047 14.6751 2.6265 14.5916 2.61605 14.5093C2.60561 14.427 2.5789 14.3477 2.53748 14.2758C-2.44836 5.6725 8.82581 -3.17333 16.1425 3.6775Z" fill="white"/>
</g>
<defs>
<clipPath id="clip0_305_56">
<rect width="20" height="20" fill="white"/>
</clipPath>
</defs>
</svg>
