<svg width="173" height="57" viewBox="0 0 173 57" fill="none" xmlns="http://www.w3.org/2000/svg">
<path d="M27 31.6985V13.2522H38.4313V15.6481H29.7813V21.2684H37.6123V23.6553H29.7813V31.6985H27ZM41.1069 31.6985H38.1546L44.7883 13.2522H48.0018L54.6356 31.6985H51.6834L46.4718 16.6028H46.3275L41.1069 31.6985ZM41.6019 24.4749H51.1793V26.8167H41.6019V24.4749ZM67.2035 18.0979C67.107 17.2453 66.7113 16.5848 66.015 16.1164C65.3187 15.642 64.4428 15.4049 63.3867 15.4049C62.6305 15.4049 61.9764 15.525 61.4244 15.7651C60.8724 15.9993 60.4436 16.3236 60.1373 16.7379C59.8374 17.1462 59.6874 17.6116 59.6874 18.134C59.6874 18.5723 59.7895 18.9506 59.9937 19.2689C60.2035 19.5871 60.4767 19.8543 60.8125 20.0705C61.1547 20.2806 61.5208 20.4578 61.9109 20.6019C62.3003 20.74 62.6755 20.8541 63.036 20.9442L64.8357 21.4126C65.4243 21.5566 66.027 21.7518 66.6451 21.998C67.2633 22.2442 67.8365 22.5684 68.3645 22.9707C68.8926 23.373 69.3185 23.8714 69.6424 24.4659C69.9726 25.0603 70.1374 25.7719 70.1374 26.6005C70.1374 27.6454 69.8677 28.5731 69.3277 29.3837C68.7933 30.1944 68.016 30.8338 66.9965 31.3022C65.9819 31.7706 64.7547 32.0048 63.3148 32.0048C61.9348 32.0048 60.7407 31.7856 59.7325 31.3472C58.7242 30.9089 57.9349 30.2874 57.3653 29.4828C56.795 28.6721 56.4796 27.7114 56.4198 26.6005H59.21C59.2643 27.267 59.4804 27.8225 59.8585 28.2669C60.2422 28.7052 60.7316 29.0324 61.3258 29.2486C61.9257 29.4587 62.5826 29.5639 63.2965 29.5639C64.083 29.5639 64.7821 29.4408 65.394 29.1945C66.0122 28.9424 66.498 28.5941 66.8521 28.1498C67.2063 27.6994 67.383 27.174 67.383 26.5736C67.383 26.0271 67.2274 25.5797 66.9148 25.2315C66.6092 24.8832 66.1917 24.595 65.6636 24.3669C65.1419 24.1387 64.5512 23.9375 63.8908 23.7633L61.7123 23.1689C60.2366 22.7666 59.0664 22.1752 58.2018 21.3945C57.3442 20.6139 56.9147 19.5811 56.9147 18.2961C56.9147 17.2333 57.2027 16.3056 57.7793 15.513C58.3553 14.7204 59.1354 14.1049 60.119 13.6665C61.1033 13.2222 62.2136 13 63.45 13C64.6977 13 65.7988 13.2192 66.7529 13.6576C67.7132 14.0959 68.4694 14.6994 69.0214 15.468C69.5734 16.2306 69.8614 17.1072 69.8853 18.0979H67.2035ZM72.5524 15.6481V13.2522H86.8185V15.6481H81.0669V31.6985H78.2949V15.6481H72.5524ZM89.0624 15.6481V13.2522H103.329V15.6481H97.5769V31.6985H94.8049V15.6481H89.0624ZM121.702 22.4754C121.702 24.4448 121.342 26.1382 120.622 27.5553C119.902 28.9664 118.915 30.0532 117.661 30.8158C116.412 31.5724 114.994 31.9507 113.403 31.9507C111.807 31.9507 110.382 31.5724 109.128 30.8158C107.88 30.0532 106.895 28.9634 106.175 27.5463C105.456 26.1292 105.095 24.4389 105.095 22.4754C105.095 20.5058 105.456 18.8155 106.175 17.4044C106.895 15.9873 107.88 14.9005 109.128 14.1439C110.382 13.3813 111.807 13 113.403 13C114.994 13 116.412 13.3813 117.661 14.1439C118.915 14.9005 119.902 15.9873 120.622 17.4044C121.342 18.8155 121.702 20.5058 121.702 22.4754ZM118.948 22.4754C118.948 20.9742 118.705 19.7102 118.219 18.6834C117.739 17.6506 117.079 16.87 116.239 16.3416C115.404 15.8072 114.459 15.54 113.403 15.54C112.341 15.54 111.393 15.8072 110.559 16.3416C109.725 16.87 109.065 17.6506 108.579 18.6834C108.099 19.7102 107.859 20.9742 107.859 22.4754C107.859 23.9765 108.099 25.2435 108.579 26.2763C109.065 27.3031 109.725 28.0837 110.559 28.6181C111.393 29.1465 112.341 29.4107 113.403 29.4107C114.459 29.4107 115.404 29.1465 116.239 28.6181C117.079 28.0837 117.739 27.3031 118.219 26.2763C118.705 25.2435 118.948 23.9765 118.948 22.4754ZM141.183 22.4754C141.183 24.4448 140.823 26.1382 140.103 27.5553C139.382 28.9664 138.395 30.0532 137.141 30.8158C135.893 31.5724 134.474 31.9507 132.884 31.9507C131.288 31.9507 129.863 31.5724 128.609 30.8158C127.36 30.0532 126.376 28.9634 125.656 27.5463C124.936 26.1292 124.576 24.4389 124.576 22.4754C124.576 20.5058 124.936 18.8155 125.656 17.4044C126.376 15.9873 127.36 14.9005 128.609 14.1439C129.863 13.3813 131.288 13 132.884 13C134.474 13 135.893 13.3813 137.141 14.1439C138.395 14.9005 139.382 15.9873 140.103 17.4044C140.823 18.8155 141.183 20.5058 141.183 22.4754ZM138.428 22.4754C138.428 20.9742 138.185 19.7102 137.7 18.6834C137.219 17.6506 136.559 16.87 135.719 16.3416C134.885 15.8072 133.94 15.54 132.884 15.54C131.822 15.54 130.874 15.8072 130.039 16.3416C129.206 16.87 128.545 17.6506 128.059 18.6834C127.579 19.7102 127.339 20.9742 127.339 22.4754C127.339 23.9765 127.579 25.2435 128.059 26.2763C128.545 27.3031 129.206 28.0837 130.039 28.6181C130.874 29.1465 131.822 29.4107 132.884 29.4107C133.94 29.4107 134.885 29.1465 135.719 28.6181C136.559 28.0837 137.219 27.3031 137.7 26.2763C138.185 25.2435 138.428 23.9765 138.428 22.4754ZM144.65 31.6985V13.2522H147.431V29.3026H155.785V31.6985H144.65ZM169.012 18.0979C168.916 17.2453 168.519 16.5848 167.824 16.1164C167.127 15.642 166.252 15.4049 165.195 15.4049C164.439 15.4049 163.785 15.525 163.233 15.7651C162.681 15.9993 162.252 16.3236 161.946 16.7379C161.646 17.1462 161.496 17.6116 161.496 18.134C161.496 18.5723 161.598 18.9506 161.802 19.2689C162.012 19.5871 162.285 19.8543 162.621 20.0705C162.963 20.2806 163.329 20.4578 163.719 20.6019C164.109 20.74 164.484 20.8541 164.844 20.9442L166.644 21.4126C167.232 21.5566 167.836 21.7518 168.454 21.998C169.071 22.2442 169.645 22.5684 170.173 22.9707C170.701 23.373 171.127 23.8714 171.451 24.4659C171.781 25.0603 171.946 25.7719 171.946 26.6005C171.946 27.6454 171.676 28.5731 171.136 29.3837C170.602 30.1944 169.825 30.8338 168.805 31.3022C167.791 31.7706 166.563 32.0048 165.123 32.0048C163.743 32.0048 162.549 31.7856 161.541 31.3472C160.533 30.9089 159.744 30.2874 159.173 29.4828C158.604 28.6721 158.288 27.7114 158.229 26.6005H161.019C161.073 27.267 161.288 27.8225 161.667 28.2669C162.051 28.7052 162.54 29.0324 163.134 29.2486C163.734 29.4587 164.391 29.5639 165.105 29.5639C165.891 29.5639 166.59 29.4408 167.203 29.1945C167.82 28.9424 168.307 28.5941 168.661 28.1498C169.014 27.6994 169.192 27.174 169.192 26.5736C169.192 26.0271 169.036 25.5797 168.724 25.2315C168.417 24.8832 168.001 24.595 167.472 24.3669C166.951 24.1387 166.359 23.9375 165.7 23.7633L163.521 23.1689C162.045 22.7666 160.874 22.1752 160.011 21.3945C159.152 20.6139 158.724 19.5811 158.724 18.2961C158.724 17.2333 159.011 16.3056 159.587 15.513C160.163 14.7204 160.943 14.1049 161.928 13.6665C162.912 13.2222 164.022 13 165.258 13C166.506 13 167.608 13.2192 168.562 13.6576C169.522 14.0959 170.278 14.6994 170.83 15.468C171.382 16.2306 171.67 17.1072 171.694 18.0979H169.012Z" fill="white"/>
<line x1="21.5" y1="1.5" x2="21.5" y2="55.5" stroke="#FF551A" stroke-width="3" stroke-linecap="round"/>
<line x1="171.5" y1="38.5" x2="1.5" y2="38.5" stroke="#FF551A" stroke-width="3" stroke-linecap="round"/>
<circle cx="21.5" cy="38.5" r="4.5" fill="#FF551A"/>
<path d="M31.0001 48.1021L11.4201 28.4774" stroke="#FF551A" stroke-width="1.74797" stroke-linecap="round"/>
<path d="M11.8902 48.1261L21.9384 38.0909" stroke="#FF551A" stroke-width="1.74797" stroke-linecap="round"/>
</svg>
